<?xml version="1.0" encoding="UTF-8" standalone="no"?>
<svg
   xmlns:dc="http://purl.org/dc/elements/1.1/"
   xmlns:cc="http://creativecommons.org/ns#"
   xmlns:rdf="http://www.w3.org/1999/02/22-rdf-syntax-ns#"
   xmlns:svg="http://www.w3.org/2000/svg"
   xmlns="http://www.w3.org/2000/svg"
   xmlns:sodipodi="http://sodipodi.sourceforge.net/DTD/sodipodi-0.dtd"
   xmlns:inkscape="http://www.inkscape.org/namespaces/inkscape"
   fill="#000000"
   viewBox="0 0 128 128"
   width="64px"
   height="64px"
   version="1.1"
   id="svg2247"
   sodipodi:docname="like.svg"
   inkscape:version="1.0.1 (0767f8302a, 2020-10-17)">
  <metadata
     id="metadata2253">
    <rdf:RDF>
      <cc:Work
         rdf:about="">
        <dc:format>image/svg+xml</dc:format>
        <dc:type
           rdf:resource="http://purl.org/dc/dcmitype/StillImage" />
      </cc:Work>
    </rdf:RDF>
  </metadata>
  <defs
     id="defs2251" />
  <sodipodi:namedview
     pagecolor="#ffffff"
     bordercolor="#666666"
     borderopacity="1"
     objecttolerance="10"
     gridtolerance="10"
     guidetolerance="10"
     inkscape:pageopacity="0"
     inkscape:pageshadow="2"
     inkscape:window-width="1366"
     inkscape:window-height="704"
     id="namedview2249"
     showgrid="false"
     inkscape:zoom="8.5625"
     inkscape:cx="32"
     inkscape:cy="32"
     inkscape:window-x="0"
     inkscape:window-y="27"
     inkscape:window-maximized="1"
     inkscape:current-layer="svg2247" />
  <path
     d="M17 109c-1.7 0-3 1.3-3 3s1.3 3 3 3h15c1.7 0 3-1.3 3-3V69c0-1.7-1.3-3-3-3H17c-1.7 0-3 1.3-3 3s1.3 3 3 3h12v37H17zM103 57.7c-2.5-3-6.1-4.7-10-4.7l-14.5.1 2-5.6c1.3-3.9 2.2-7.9 2.8-12l.6-4c.4-2.9-.4-5.8-2.1-8.1s-4.4-3.9-7.3-4.3c-2.9-.4-5.8.3-8.1 2.1-2.3 1.8-3.9 4.4-4.3 7.3l-.6 4c-1.7 12.6-8.7 23.9-19.2 31-1.4.9-1.7 2.8-.8 4.2.9 1.4 2.8 1.7 4.2.8 11.9-8.1 19.8-20.9 21.8-35.2l.6-4c.2-1.3.9-2.5 1.9-3.3 1.1-.8 2.4-1.1 3.7-1 2.7.4 4.6 2.9 4.3 5.6l-.6 4c-.5 3.7-1.4 7.4-2.5 10.8l-3.4 9.6c-.3.9-.2 1.9.4 2.7.6.8 1.5 1.3 2.5 1.3L93.1 59c2.1 0 4 .9 5.4 2.5 1.3 1.6 1.9 3.7 1.5 5.7l-6.4 36c-.6 3.3-3.5 5.8-6.9 5.8H56.8c-4 0-8-.7-11.8-2.1-1.6-.6-3.3.2-3.9 1.8-.6 1.6.2 3.3 1.8 3.9 4.4 1.7 9.1 2.5 13.9 2.5h29.8c6.3 0 11.7-4.5 12.8-10.7l6.4-36C106.5 64.5 105.5 60.6 103 57.7z"
     id="path2245"
     style="fill:#f58220;fill-opacity:1" />
</svg>
