<svg xmlns="http://www.w3.org/2000/svg" width="71" height="26">
    <g fill="none">
        <path fill="#f7912e" d="M0 .963C0 .446.432 0 .983 0H4.03c.528 0 1.391.094 1.919.211 0 0 .791.165 1.367 1.01l7.243 11.02c.288.447.743 1.175 1.031 1.622 0 0 1.463 2.42 2.782 5.568-.671-3.36-.863-4.934-.863-6.931V.963c0-.517.432-.963.983-.963h3.55c.527 0 .959.423.959.963v23.05a.973.973 0 0 1-.96.964h-3.07c-.527 0-1.39-.094-1.918-.212 0 0-.791-.164-1.367-1.01l-7.243-11.02c-.288-.446-.743-1.175-1.031-1.621 0 0-1.463-2.42-2.782-5.569.647 3.36.863 4.934.863 6.885v11.607A.978.978 0 0 1 4.51 25H.983C.456 25 0 24.577 0 24.037V.963z"></path>
        <path fill="#4d4f54" class="logo-right-part" d="M26 14.105c0-.528.425-.985.967-.985h9.057c.518 0 .943.433.943.985v2.475c0 .53-.425.986-.943.986h-9.057A.98.98 0 0 1 26 16.58v-2.475zm13.892-4.661c0-.529.424-.986.966-.986h3.491a.98.98 0 0 1 .967.986v15.57c0 .53-.424.986-.967.986h-3.514a.98.98 0 0 1-.967-.985V9.444h.024zm5.377-6.705c0 1.514-1.203 2.74-2.689 2.74s-2.688-1.226-2.688-2.74C39.892 1.226 41.094 0 42.58 0c1.486 0 2.689 1.226 2.689 2.74zM46.802 26c1.792-3.22 4.387-7.521 6.698-11.054l.519-.793c.283-.456.613-.937.707-1.105a.623.623 0 0 0 0-.577c-.094-.168-.424-.648-.707-1.081 0 0-1.274-1.922-1.958-2.98a133.1 133.1 0 0 1-3.443-5.623l-.472-.84c-.26-.457-.566-.986-.66-1.178-.094-.168.236-.312.755-.312h4.952c.52 0 1.038.144 1.132.336.095.192.378.72.637 1.201 0 0 2.5 3.941 4.552 6.969.99 1.442 3.703 5.046 3.986 5.503 0 0 2.712 3.82 4.127 6.103.92 1.49 1.91 2.836 2.571 4.013.236.433.425.721.802 1.394h-6.014c-.519 0-1.156-.385-1.392-.865 0 0-.896-1.706-1.934-3.605-1.32-2.402-1.934-3.508-3.018-5.262l-.19.312c-.259.457-.707 1.226-.966 1.682 0 0-2.594 4.59-3.868 7.017-.189.385-.778.721-1.297.721H46.8V26zM60.34 7.45s2.028-3.485 3.537-6.32c.189-.385.779-.673 1.298-.673h4.386c.52 0 .873.144.755.312-.094.168-.424.697-.684 1.153l-5.024 8.074-1.06 1.778L60.34 7.45z"></path>
    </g>
</svg>