<svg width="512" height="512" xmlns="http://www.w3.org/2000/svg">

 <g>
  <title>background</title>
  <rect fill="none" id="canvas_background" height="602" width="802" y="-1" x="-1"/>
 </g>
 <g>
  <title>Layer 1</title>
  <g id="svg_1">
   <path fill="#f58220" id="svg_2" d="m136,265.002c-39.149,0 -71,31.851 -71,71s31.851,71 71,71s71,-31.851 71,-71s-31.851,-71 -71,-71zm0,112c-22.607,0 -41,-18.393 -41,-41s18.393,-41 41,-41s41,18.393 41,41s-18.393,41 -41,41z"/>
   <path fill="#f58220" id="svg_3" d="m432,281.002l-160,0c-8.284,0 -15,6.716 -15,15s6.716,15 15,15l160,0c8.284,0 15,-6.716 15,-15s-6.716,-15 -15,-15z"/>
   <path fill="#f58220" id="svg_4" d="m432,361.002l-160,0c-8.284,0 -15,6.716 -15,15s6.716,15 15,15l160,0c8.284,0 15,-6.716 15,-15s-6.716,-15 -15,-15z"/>
   <path fill="#f58220" id="svg_5" d="m452,105.002l-9.744,0l-205.845,-63.337c-7.916,-2.436 -16.312,2.008 -18.748,9.926s2.008,16.312 9.926,18.748l112.655,34.663l-280.244,0c-33.084,0 -60,26.916 -60,60l0,246c0,33.084 26.916,60 60,60l392,0c33.084,0 60,-26.916 60,-60c0,-7.806 0,-242.525 0,-246c0,-33.084 -26.916,-60 -60,-60zm-422,60c0,-16.542 13.458,-30 30,-30l392,0c16.542,0 30,13.458 30,30l0,36l-331,0l0,-17c0,-8.284 -6.716,-15 -15,-15s-15,6.716 -15,15l0,17l-91,0l0,-36zm422,276l-392,0c-16.542,0 -30,-13.458 -30,-30l0,-180l452,0l0,180c0,16.542 -13.458,30 -30,30z"/>
  </g>
 </g>
</svg>