<?xml version="1.0" encoding="UTF-8" standalone="no"?>
<svg
   xmlns:dc="http://purl.org/dc/elements/1.1/"
   xmlns:cc="http://creativecommons.org/ns#"
   xmlns:rdf="http://www.w3.org/1999/02/22-rdf-syntax-ns#"
   xmlns:svg="http://www.w3.org/2000/svg"
   xmlns="http://www.w3.org/2000/svg"
   xmlns:sodipodi="http://sodipodi.sourceforge.net/DTD/sodipodi-0.dtd"
   xmlns:inkscape="http://www.inkscape.org/namespaces/inkscape"
   version="1.0"
   width="512.000000pt"
   height="512.000000pt"
   viewBox="0 0 512.000000 512.000000"
   preserveAspectRatio="xMidYMid meet"
   id="svg1628"
   sodipodi:docname="reliability.svg"
   inkscape:version="1.0.1 (0767f8302a, 2020-10-17)">
  <defs
     id="defs1632" />
  <sodipodi:namedview
     pagecolor="#ffffff"
     bordercolor="#666666"
     borderopacity="1"
     objecttolerance="10"
     gridtolerance="10"
     guidetolerance="10"
     inkscape:pageopacity="0"
     inkscape:pageshadow="2"
     inkscape:window-width="1366"
     inkscape:window-height="704"
     id="namedview1630"
     showgrid="false"
     inkscape:zoom="0.80273438"
     inkscape:cx="341.33333"
     inkscape:cy="341.33333"
     inkscape:window-x="0"
     inkscape:window-y="27"
     inkscape:window-maximized="1"
     inkscape:current-layer="g1626" />
  <metadata
     id="metadata1620">
Created by potrace 1.16, written by Peter Selinger 2001-2019
<rdf:RDF>
  <cc:Work
     rdf:about="">
    <dc:format>image/svg+xml</dc:format>
    <dc:type
       rdf:resource="http://purl.org/dc/dcmitype/StillImage" />
  </cc:Work>
</rdf:RDF>
</metadata>
  <g
     transform="translate(0.000000,512.000000) scale(0.100000,-0.100000)"
     fill="#000000"
     stroke="none"
     id="g1626">
    <path
       d="M2538 4962 c-81 -137 -400 -471 -608 -638 -171 -136 -274 -203 -431 -278 -256 -123 -625 -229 -873 -252 l-77 -7 3 -871 3 -871 28 -100 c34 -125 134 -328 223 -452 293 -407 862 -846 1556 -1198 l197 -100 173 87 c718 362 1285 797 1585 1216 74 104 161 268 197 373 55 163 56 180 56 1085 l0 833 -32 5 c-18 3 -91 15 -161 27 -383 62 -744 192 -992 357 -227 152 -534 437 -705 656 -47 60 -94 120 -105 133 l-20 24 -17 -29z m168 -553 c409 -415 746 -623 1239 -763 72 -20 182 -47 245 -59 l115 -23 0 -735 c0 -844 5 -795 -95 -997 -136 -273 -415 -561 -825 -854 -216 -154 -493 -321 -716 -434 l-110 -54 -127 64 c-256 131 -576 330 -797 496 -472 356 -745 697 -809 1012 -14 66 -16 181 -16 786 l0 710 48 7 c88 13 321 76 469 126 399 136 697 331 1053 689 96 97 176 177 176 178 1 1 69 -66 150 -149z"
       id="path1622"
       style="fill:#f58220;fill-opacity:1" />
    <path
       d="M3120 3107 c-14 -7 -190 -230 -391 -497 -201 -266 -370 -485 -375 -487 -6 -2 -103 60 -215 138 -262 183 -256 179 -309 179 -62 0 -104 -28 -125 -83 -20 -53 -9 -111 27 -144 13 -11 146 -111 296 -223 235 -174 279 -203 315 -207 29 -3 52 2 74 14 21 12 180 208 445 548 226 292 422 545 435 564 16 24 23 48 23 84 0 44 -4 53 -39 88 -34 35 -44 39 -87 39 -27 0 -60 -6 -74 -13z"
       id="path1624"
       style="fill:#f58220;fill-opacity:1" />
  </g>
</svg>
